HIERARCHY
ROOT Hips
{
	OFFSET 0.000000 0.000000 0.000000
	CHANNELS 6 Xposition Yposition Zposition Zrotation Yrotation Xrotation 
	JOINT LowerBack
	{
		OFFSET 0.000000 0.000000 0.000000
		CHANNELS 3 Zrotation Yrotation Xrotation
		JOINT Spine
		{
			OFFSET 0.028270 2.035590 -0.193380
			CHANNELS 3 Zrotation Yrotation Xrotation
			JOINT Spine1
			{
				OFFSET 0.056720 2.048850 -0.042750
				CHANNELS 3 Zrotation Yrotation Xrotation
				JOINT Neck
				{
					OFFSET 0.000000 0.000000 0.000000
					CHANNELS 3 Zrotation Yrotation Xrotation
					JOINT Neck1
					{
						OFFSET -0.054170 1.746240 0.172020
						CHANNELS 3 Zrotation Yrotation Xrotation
						JOINT Head
						{
							OFFSET 0.104070 1.761360 -0.123970
							CHANNELS 3 Zrotation Yrotation Xrotation
							End Site
							{
								OFFSET 0.000000 0.000000 0.000000
							}
						}
					}
				}
				JOINT LeftShoulder
				{
					OFFSET 0.000000 0.000000 0.000000
					CHANNELS 3 Zrotation Yrotation Xrotation
					JOINT LeftArm
					{
						OFFSET 3.362410 1.200890 -0.311210
						CHANNELS 3 Zrotation Yrotation Xrotation
						JOINT LeftForeArm
						{
							OFFSET 4.983000 -0.000000 -0.000000
							CHANNELS 3 Zrotation Yrotation Xrotation
							JOINT LeftHand
							{
								OFFSET 3.483560 -0.000000 -0.000000
								CHANNELS 3 Zrotation Yrotation Xrotation
								JOINT LeftFingerBase
								{
									OFFSET 0.000000 0.000000 0.000000
									CHANNELS 3 Zrotation Yrotation Xrotation
									JOINT LeftHandIndex1
									{
										OFFSET 0.715260 -0.000000 -0.000000
										CHANNELS 3 Zrotation Yrotation Xrotation
										End Site
										{
											OFFSET 0.000000 0.000000 0.000000
										}
									}
								}
								JOINT LThumb
								{
									OFFSET 0.000000 0.000000 0.000000
									CHANNELS 3 Zrotation Yrotation Xrotation
									End Site
									{
										OFFSET 0.000000 0.000000 0.000000
									}
								}
							}
						}
					}
				}
				JOINT RightShoulder
				{
					OFFSET 0.000000 0.000000 0.000000
					CHANNELS 3 Zrotation Yrotation Xrotation
					JOINT RightArm
					{
						OFFSET -3.136600 1.374050 -0.404650
						CHANNELS 3 Zrotation Yrotation Xrotation
						JOINT RightForeArm
						{
							OFFSET -5.241900 -0.000000 -0.000000
							CHANNELS 3 Zrotation Yrotation Xrotation
							JOINT RightHand
							{
								OFFSET -3.444170 -0.000000 -0.000000
								CHANNELS 3 Zrotation Yrotation Xrotation
								JOINT RightFingerBase
								{
									OFFSET 0.000000 0.000000 0.000000
									CHANNELS 3 Zrotation Yrotation Xrotation
									JOINT RightHandIndex1
									{
										OFFSET -0.622530 -0.000000 -0.000000
										CHANNELS 3 Zrotation Yrotation Xrotation
										End Site
										{
											OFFSET 0.000000 0.000000 0.000000
										}
									}
								}
								JOINT RThumb
								{
									OFFSET 0.000000 0.000000 0.000000
									CHANNELS 3 Zrotation Yrotation Xrotation
									End Site
									{
										OFFSET 0.000000 0.000000 0.000000
									}
								}
							}
						}
					}
				}
			}
		}
	}
}
}
MOTION
Frames: 19
Frame Time: 0.008333
-10.333646 16.566271 0.546524 -13.903451 85.335268 12.953459 -5.524833 1.689607 5.981859 -2.443974 1.891994 -2.107114 -7.550020 1.806453 -0.506318 10.365387 5.567912 3.919179 -4.498180 -0.411975 2.626704 0.000000 0.000000 0.000000 -6.684850 -0.672471 2.933693 -51.636725 -3.772577 8.573032 -4.058013 -20.872528 -0.002833 3.038012 1.475061 0.040737 -0.120022 0.007878 0.000000 0.000000 0.000000 0.000000 0.000000 0.000000 0.000000 19.993453 6.516060 -1.599643 81.405492 25.489536 27.837373 1.157424 52.214680 -0.003006 1.161007 12.151115 0.132652 -0.048967 -0.334399 -0.000000 0.000000 0.000000 0.000000 0.000000 0.000000 0.000000 
-10.159230 16.529094 0.569309 -7.546980 85.254769 18.909484 -6.216359 1.637762 6.280170 -2.577586 1.861513 -2.053488 -7.550598 1.776485 -0.552929 10.288587 5.811686 4.086124 -4.498388 -0.412836 2.658380 0.000000 0.000000 0.000000 -6.942999 -1.006791 2.950416 -51.538447 -4.407675 8.363728 -4.097803 -20.204515 -0.003123 3.071611 1.543999 0.043032 -0.118428 0.011112 0.000000 0.000000 0.000000 0.000000 0.000000 0.000000 0.000000 19.929454 6.622933 -1.614792 81.497349 25.172759 26.722494 1.150541 50.895899 -0.004561 0.934522 12.335896 0.109430 -0.048730 -0.327398 -0.000000 0.000000 0.000000 0.000000 0.000000 0.000000 0.000000 
-9.988343 16.499539 0.587964 -2.746486 85.100114 23.327840 -6.768509 1.606084 6.583924 -2.684354 1.846947 -1.991606 -7.546203 1.762974 -0.575555 10.133225 6.069534 4.267070 -4.500119 -0.413634 2.692540 0.000000 0.000000 0.000000 -7.224118 -1.292460 2.953175 -51.534585 -5.221770 8.021274 -4.127622 -19.423596 -0.003477 3.159215 1.619337 0.046227 -0.116031 0.015444 0.000000 0.000000 0.000000 0.000000 0.000000 0.000000 0.000000 19.787374 6.729350 -1.635671 81.585988 24.902293 25.522131 1.151107 49.399307 -0.005994 0.685937 12.514264 0.082708 -0.047585 -0.318605 -0.000000 0.000000 0.000000 0.000000 0.000000 0.000000 0.000000 
-9.820395 16.477745 0.601634 0.521513 84.870148 26.238366 -7.191467 1.597651 6.876687 -2.765558 1.852392 -1.925771 -7.538452 1.769741 -0.574986 9.899502 6.338646 4.458967 -4.504932 -0.414466 2.728991 0.000000 0.000000 0.000000 -7.524726 -1.528251 2.940732 -51.635003 -6.182855 7.526042 -4.143542 -18.573047 -0.003910 3.318145 1.701865 0.050620 -0.112710 0.020767 0.000000 0.000000 0.000000 0.000000 0.000000 0.000000 0.000000 19.573868 6.837084 -1.657866 81.658714 24.675893 24.238905 1.161412 47.737569 -0.007183 0.426278 12.670793 0.053890 -0.045490 -0.308150 -0.000000 0.000000 0.000000 0.000000 0.000000 0.000000 0.000000 
-9.654818 16.463674 0.610206 2.633062 84.587949 28.017937 -7.508500 1.604658 7.149651 -2.825456 1.871308 -1.860455 -7.528234 1.789848 -0.561916 9.598740 6.629651 4.668734 -4.513568 -0.415486 2.770020 0.000000 0.000000 0.000000 -7.827764 -1.760450 2.917227 -51.850195 -7.196332 6.837706 -4.141140 -17.731881 -0.004430 3.560981 1.791063 0.056812 -0.108285 0.026856 0.000000 0.000000 0.000000 0.000000 0.000000 0.000000 0.000000 19.304589 6.957421 -1.674681 81.698880 24.467678 22.846677 1.181426 45.943215 -0.008031 0.178897 12.778585 0.025574 -0.042777 -0.296235 -0.000000 0.000000 0.000000 0.000000 0.000000 0.000000 0.000000 
-9.490835 16.457119 0.613061 3.669807 84.271762 28.757395 -7.711591 1.620411 7.394807 -2.862722 1.897470 -1.791289 -7.519737 1.818032 -0.514252 9.235999 6.908386 4.862871 -4.528985 -0.416451 2.806525 0.000000 0.000000 0.000000 -8.142910 -1.867498 2.878285 -52.162309 -8.405533 6.084525 -4.122381 -16.872839 -0.005050 3.907001 1.866571 0.064504 -0.103079 0.033756 0.000000 0.000000 0.000000 0.000000 0.000000 0.000000 0.000000 18.997655 7.057065 -1.692503 81.699361 24.317494 21.404246 1.215045 44.020819 -0.008468 -0.062008 12.838615 -0.002438 -0.039039 -0.282983 0.000000 0.000000 0.000000 0.000000 0.000000 0.000000 0.000000 
-9.327835 16.457745 0.610610 3.936870 83.944321 28.761441 -7.812758 1.637597 7.604219 -2.879906 1.924017 -1.727409 -7.513350 1.846195 -0.461480 8.830469 7.209513 5.067123 -4.549410 -0.417616 2.846251 0.000000 0.000000 0.000000 -8.448218 -1.980567 2.833376 -52.580674 -9.585949 5.210269 -4.081101 -16.153750 -0.005768 4.351377 1.929933 0.073694 -0.096816 0.040809 0.000000 0.000000 0.000000 0.000000 0.000000 0.000000 0.000000 18.665435 7.173531 -1.698134 81.638166 24.158767 19.839507 1.260120 42.031490 -0.008459 -0.260710 12.819922 -0.025748 -0.034942 -0.268862 0.000000 0.000000 0.000000 0.000000 0.000000 0.000000 0.000000 
-9.165125 16.465141 0.603017 3.544105 83.619692 28.148245 -7.811547 1.649785 7.774426 -2.877748 1.944698 -1.663882 -7.513563 1.869011 -0.383153 8.393628 7.485347 5.246110 -4.577980 -0.418754 2.879480 0.000000 0.000000 0.000000 -8.749194 -1.997115 2.778327 -53.080515 -10.856075 4.371503 -4.021951 -15.566840 -0.006584 4.891682 1.957173 0.083385 -0.090026 0.047843 0.000000 0.000000 0.000000 0.000000 0.000000 0.000000 0.000000 18.335084 7.259783 -1.696945 81.510588 24.042328 18.237757 1.320275 39.974094 -0.008016 -0.437950 12.737819 -0.046353 -0.029928 -0.254157 0.000000 0.000000 0.000000 0.000000 0.000000 0.000000 0.000000 
-9.002242 16.478825 0.591035 2.672365 83.311840 27.100199 -7.719379 1.652600 7.899990 -2.858333 1.955084 -1.608958 -7.519328 1.880899 -0.306673 7.946522 7.778117 5.423330 -4.610748 -0.419965 2.913275 0.000000 0.000000 0.000000 -9.028022 -2.019212 2.721909 -53.662193 -12.036007 3.579672 -3.943968 -15.245869 -0.007462 5.501864 1.945864 0.092575 -0.082857 0.054231 0.000000 0.000000 0.000000 0.000000 0.000000 0.000000 0.000000 18.011699 7.363438 -1.679249 81.300217 23.893088 16.512210 1.391427 37.926266 -0.007179 -0.556966 12.565807 -0.059556 -0.024740 -0.239367 0.000000 0.000000 0.000000 0.000000 0.000000 0.000000 0.000000 
-8.838858 16.498293 0.575374 1.420229 83.031229 25.721004 -7.545009 1.642091 7.980646 -2.823849 1.951138 -1.559675 -7.532926 1.878370 -0.220915 7.502615 8.042352 5.574768 -4.649566 -0.421127 2.941187 0.000000 0.000000 0.000000 -9.283096 -2.004166 2.661222 -54.305634 -13.171591 2.962315 -3.853451 -15.206563 -0.008368 6.154338 1.881992 0.099467 -0.075993 0.059761 0.000000 0.000000 0.000000 0.000000 0.000000 0.000000 0.000000 17.719322 7.439040 -1.647026 81.003935 23.754461 14.751251 1.475174 35.884376 -0.006043 -0.650117 12.332506 -0.069256 -0.018853 -0.224871 0.000000 0.000000 0.000000 0.000000 0.000000 0.000000 0.000000 
-8.674792 16.523095 0.556956 -0.101038 82.788680 24.123008 -7.301445 1.615670 8.016447 -2.776341 1.929995 -1.519797 -7.552612 1.858046 -0.139956 7.078483 8.298414 5.710397 -4.690681 -0.422200 2.966373 0.000000 0.000000 0.000000 -9.504979 -1.996944 2.600685 -54.999363 -14.183811 2.574338 -3.754716 -15.509678 -0.009247 6.811153 1.764341 0.102463 -0.069982 0.064217 0.000000 0.000000 0.000000 0.000000 0.000000 0.000000 0.000000 17.459833 7.510686 -1.596872 80.616058 23.583925 12.918306 1.567389 33.903889 -0.004701 -0.705101 12.036025 -0.074052 -0.012679 -0.211059 0.000000 0.000000 0.000000 0.000000 0.000000 0.000000 0.000000 
-8.510059 16.552739 0.536670 -1.807547 82.593990 22.390172 -7.002577 1.571566 8.011499 -2.718384 1.889684 -1.488397 -7.577953 1.818105 -0.063184 6.685753 8.519102 5.822749 -4.734011 -0.423166 2.987020 0.000000 0.000000 0.000000 -9.687056 -2.010221 2.539600 -55.726763 -15.059482 2.471100 -3.652753 -16.170106 -0.010050 7.436532 1.591457 0.100161 -0.065401 0.067643 0.000000 0.000000 0.000000 0.000000 0.000000 0.000000 0.000000 17.246564 7.550579 -1.528208 80.135736 23.401440 11.077542 1.666768 31.987944 -0.003262 -0.748391 11.705248 -0.077148 -0.006007 -0.198245 -0.000000 0.000000 0.000000 0.000000 0.000000 0.000000 0.000000 
-8.344723 16.586799 0.515315 -3.625073 82.455840 20.592970 -6.661160 1.508522 7.972100 -2.651627 1.828704 -1.466618 -7.606744 1.756848 0.001035 6.336163 8.734771 5.920862 -4.774536 -0.423868 3.005782 0.000000 0.000000 0.000000 -9.832348 -2.048471 2.481542 -56.463788 -15.798050 2.694269 -3.553336 -17.172424 -0.010756 7.999326 1.363865 0.091366 -0.062795 0.070365 0.000000 0.000000 0.000000 0.000000 0.000000 0.000000 0.000000 17.070764 7.592932 -1.442945 79.565031 23.157850 9.178039 1.767459 30.198749 -0.001809 -0.762327 11.336102 -0.076743 0.000612 -0.186599 -0.000000 0.000000 0.000000 0.000000 0.000000 0.000000 0.000000 
-8.179031 16.624859 0.493560 -5.503601 82.382202 18.775577 -6.290393 1.426619 7.906618 -2.578427 1.747100 -1.452308 -7.637830 1.674567 0.054928 6.033902 8.912227 5.999245 -4.812764 -0.424351 3.021295 0.000000 0.000000 0.000000 -9.934507 -2.132699 2.424966 -57.194344 -16.394869 3.226050 -3.457923 -18.496913 -0.011350 8.477646 1.084836 0.075880 -0.062354 0.072754 0.000000 0.000000 0.000000 0.000000 0.000000 0.000000 0.000000 16.939942 7.602455 -1.340972 78.908553 22.885554 7.308170 1.868701 28.515712 -0.000421 -0.780718 10.969501 -0.076637 0.007460 -0.176309 -0.000000 0.000000 0.000000 0.000000 0.000000 0.000000 0.000000 
-8.013166 16.666494 0.471860 -7.409873 82.378269 16.962687 -5.900827 1.326627 7.824295 -2.500300 1.645677 -1.444545 -7.669232 1.572089 0.095722 5.781951 9.054421 6.062306 -4.846603 -0.424584 3.034829 0.000000 0.000000 0.000000 -9.993238 -2.275752 2.370829 -57.902064 -16.857215 4.028969 -3.367334 -20.102355 -0.011842 8.857086 0.757189 0.053504 -0.064084 0.075330 0.000000 0.000000 0.000000 0.000000 0.000000 0.000000 0.000000 16.848271 7.582886 -1.223708 78.172562 22.574654 5.482741 1.967558 26.952488 0.000859 -0.806548 10.622379 -0.077231 0.014349 -0.167440 -0.000000 0.000000 0.000000 0.000000 0.000000 0.000000 0.000000 
-7.847330 16.711295 0.450457 -9.336644 82.445777 15.152089 -5.498619 1.209834 7.735198 -2.418052 1.525865 -1.440738 -7.700296 1.451127 0.126617 5.580769 9.169928 6.109812 -4.874057 -0.424461 3.046143 0.000000 0.000000 0.000000 -10.019747 -2.446839 2.319668 -58.567225 -17.254904 5.082289 -3.284477 -21.906075 -0.012273 9.132559 0.380452 0.024641 -0.067974 0.078724 0.000000 0.000000 0.000000 0.000000 0.000000 0.000000 0.000000 16.787332 7.545041 -1.096450 77.365585 22.211084 3.697667 2.061187 25.531743 0.002013 -0.832190 10.297731 -0.077825 0.021010 -0.159898 -0.000000 0.000000 0.000000 0.000000 0.000000 0.000000 0.000000 
-7.681677 16.758764 0.429369 -11.304981 82.582969 13.312749 -5.087870 1.078156 7.647221 -2.332137 1.389771 -1.439617 -7.729113 1.313821 0.146973 5.425382 9.249878 6.144309 -4.895089 -0.424044 3.055936 0.000000 0.000000 0.000000 -10.009419 -2.665577 2.270962 -59.190524 -17.582741 6.296534 -3.206603 -23.872063 -0.012658 9.300936 -0.035050 -0.009311 -0.073551 0.083363 0.000000 0.000000 0.000000 0.000000 0.000000 0.000000 0.000000 16.750862 7.479397 -0.959466 76.496227 21.808578 1.999979 2.149775 24.229960 0.003044 -0.869180 10.022660 -0.079520 0.027507 -0.153679 -0.000000 0.000000 0.000000 0.000000 0.000000 0.000000 0.000000 
-7.516071 16.808518 0.408507 -13.349444 82.784394 11.403210 -4.669671 0.934254 7.566325 -2.243007 1.240357 -1.437424 -7.757682 1.163680 0.167955 5.313724 9.289068 6.157241 -4.910976 -0.423299 3.061415 0.000000 0.000000 0.000000 -9.980951 -2.868853 2.223727 -59.759259 -17.950364 7.664935 -3.138518 -25.896152 -0.013013 9.365365 -0.490767 -0.047548 -0.080671 0.089700 0.000000 0.000000 0.000000 0.000000 0.000000 0.000000 0.000000 16.741040 7.382317 -0.820056 75.569728 21.371579 0.404886 2.232012 23.059006 0.003956 -0.914324 9.781071 -0.082016 0.033733 -0.148477 -0.000000 0.000000 0.000000 0.000000 0.000000 0.000000 0.000000 
-7.350837 16.859890 0.387527 -15.589786 83.043564 9.292659 -4.237153 0.782931 7.498971 -2.148126 1.082414 -1.436951 -7.778950 1.004727 0.173748 5.232410 9.297748 6.167821 -4.918214 -0.422313 3.068293 0.000000 0.000000 0.000000 -9.907834 -3.153230 2.177498 -60.308575 -18.235873 9.041698 -3.068148 -28.020615 -0.013372 9.335606 -0.946321 -0.085577 -0.088276 0.097813 0.000000 0.000000 0.000000 0.000000 0.000000 0.000000 0.000000 16.726785 7.265418 -0.671213 74.604095 20.892968 -1.095284 2.311175 21.976469 0.004814 -0.957574 9.618252 -0.084812 0.039651 -0.144508 -0.000000 0.000000 0.000000 0.000000 0.000000 0.000000 0.000000 
